HIERARCHY
ROOT Hips
{
	OFFSET 0.000000 71.427986 0.000000
	CHANNELS 6 Xposition Yposition Zposition Xrotation Yrotation Zrotation
	JOINT Pelvis
	{
		OFFSET 0.000000 0.000000 0.000000
		CHANNELS 3 Xrotation Yrotation Zrotation
		JOINT LeftUpLeg
		{
			OFFSET 6.797100 -2.508499 -1.318700
			CHANNELS 3 Xrotation Yrotation Zrotation
			JOINT LeftLeg
			{
				OFFSET 0.069008 -29.241863 0.690200
				CHANNELS 3 Xrotation Yrotation Zrotation
				JOINT LeftFoot
				{
					OFFSET -0.069008 -29.568123 -0.266800
					CHANNELS 3 Xrotation Yrotation Zrotation
					JOINT LeftToeBase
					{
						OFFSET 3.145500 -8.631000 16.059900
						CHANNELS 3 Xrotation Yrotation Zrotation
						End Site
						{
							OFFSET 0.000000 18.501587 0.000000
						}
					}
				}
			}
			JOINT Left_ShortSleeve
			{
				OFFSET 0.265923 -10.480953 1.153800
				CHANNELS 3 Xrotation Yrotation Zrotation
				End Site
				{
					OFFSET 1.725763 19.823879 0.000000
				}
			}
		}
		JOINT RightUpLeg
		{
			OFFSET -6.797100 -2.508499 -1.318700
			CHANNELS 3 Xrotation Yrotation Zrotation
			JOINT RightLeg
			{
				OFFSET -0.082453 -29.241932 0.688000
				CHANNELS 3 Xrotation Yrotation Zrotation
				JOINT RightFoot
				{
					OFFSET 0.082453 -29.568058 -0.264600
					CHANNELS 3 Xrotation Yrotation Zrotation
					JOINT RightToeBase
					{
						OFFSET -3.115300 -8.682800 16.113400
						CHANNELS 3 Xrotation Yrotation Zrotation
						End Site
						{
							OFFSET 0.000000 18.567114 0.000000
						}
					}
				}
			}
			JOINT Right_ShortSleeve
			{
				OFFSET -0.265923 -10.480953 1.153800
				CHANNELS 3 Xrotation Yrotation Zrotation
				End Site
				{
					OFFSET -1.725766 19.823910 0.000000
				}
			}
		}
	}
	JOINT Spine
	{
		OFFSET 0.000000 13.368103 0.470500
		CHANNELS 3 Xrotation Yrotation Zrotation
		JOINT Spine1
		{
			OFFSET 0.147000 13.837402 0.538800
			CHANNELS 3 Xrotation Yrotation Zrotation
			JOINT Spine2
			{
				OFFSET 0.168000 16.242897 -1.435500
				CHANNELS 3 Xrotation Yrotation Zrotation
				JOINT Neck
				{
					OFFSET 0.217200 18.631500 -1.679100
					CHANNELS 3 Xrotation Yrotation Zrotation
					JOINT Head
					{
						OFFSET 0.000000 6.599396 1.385900
						CHANNELS 3 Xrotation Yrotation Zrotation
						JOINT Hat
						{
							OFFSET -0.532200 27.220596 -10.096100
							CHANNELS 3 Xrotation Yrotation Zrotation
							End Site
							{
								OFFSET 0.000000 22.029861 0.000000
							}
						}
						JOINT HairD
						{
							OFFSET -10.777400 17.437393 -1.325900
							CHANNELS 3 Xrotation Yrotation Zrotation
							JOINT HairD1
							{
								OFFSET -3.290299 -11.051193 1.062200
								CHANNELS 3 Xrotation Yrotation Zrotation
								End Site
								{
									OFFSET 0.000000 11.579437 0.000000
								}
							}
						}
						JOINT HairB
						{
							OFFSET -10.777400 17.437393 1.467900
							CHANNELS 3 Xrotation Yrotation Zrotation
							JOINT HairB1
							{
								OFFSET -1.561200 -12.956299 3.590200
								CHANNELS 3 Xrotation Yrotation Zrotation
								End Site
								{
									OFFSET 0.000000 13.534866 0.000000
								}
							}
						}
						JOINT HairA
						{
							OFFSET 9.713100 17.437393 1.467900
							CHANNELS 3 Xrotation Yrotation Zrotation
							JOINT HairA1
							{
								OFFSET 1.561200 -12.956299 3.590200
								CHANNELS 3 Xrotation Yrotation Zrotation
								End Site
								{
									OFFSET 0.000000 13.534866 0.000000
								}
							}
						}
						JOINT HairC
						{
							OFFSET 9.713100 17.437393 -1.325900
							CHANNELS 3 Xrotation Yrotation Zrotation
							JOINT HairC1
							{
								OFFSET 3.290300 -11.051193 1.062200
								CHANNELS 3 Xrotation Yrotation Zrotation
								End Site
								{
									OFFSET 0.000000 11.579437 0.000000
								}
							}
						}
					}
				}
				JOINT LeftShoulder
				{
					OFFSET 5.101800 15.108002 -2.763700
					CHANNELS 3 Xrotation Yrotation Zrotation
					JOINT LeftArm
					{
						OFFSET 9.825497 2.506317 -1.597400
						CHANNELS 3 Xrotation Yrotation Zrotation
						JOINT LeftForeArm
						{
							OFFSET 21.966244 0.000000 0.000000
							CHANNELS 3 Xrotation Yrotation Zrotation
							JOINT LeftHand
							{
								OFFSET 33.879036 0.000000 0.000000
								CHANNELS 3 Xrotation Yrotation Zrotation
								JOINT LeftHandThumb1
								{
									OFFSET 6.715286 -2.359680 3.363841
									CHANNELS 3 Xrotation Yrotation Zrotation
									JOINT LeftHandThumb2
									{
										OFFSET 2.507072 -1.447464 1.447461
										CHANNELS 3 Xrotation Yrotation Zrotation
										JOINT LeftHandThumb3
										{
											OFFSET 2.898338 -1.673355 1.673357
											CHANNELS 3 Xrotation Yrotation Zrotation
											End Site
											{
												OFFSET -0.295959 3.727692 -0.131651
											}
										}
									}
								}
								JOINT LeftHandIndex1
								{
									OFFSET 14.190811 -0.254547 3.840278
									CHANNELS 3 Xrotation Yrotation Zrotation
									JOINT LeftHandIndex2
									{
										OFFSET 3.551727 0.000000 -0.000000
										CHANNELS 3 Xrotation Yrotation Zrotation
										JOINT LeftHandIndex3
										{
											OFFSET 2.894196 0.000000 0.000000
											CHANNELS 3 Xrotation Yrotation Zrotation
											End Site
											{
												OFFSET -1.000603 2.690872 0.366626
											}
										}
									}
								}
								JOINT LeftHandMiddle1
								{
									OFFSET 13.776489 0.000000 0.000000
									CHANNELS 3 Xrotation Yrotation Zrotation
									JOINT LeftHandMiddle2
									{
										OFFSET 3.438232 0.000000 0.000000
										CHANNELS 3 Xrotation Yrotation Zrotation
										JOINT LeftHandMiddle3
										{
											OFFSET 3.691551 0.000000 0.000000
											CHANNELS 3 Xrotation Yrotation Zrotation
											End Site
											{
												OFFSET -1.082298 3.499527 0.457670
											}
										}
									}
								}
								JOINT LeftHandRing1
								{
									OFFSET 13.966164 -0.268127 -3.067488
									CHANNELS 3 Xrotation Yrotation Zrotation
									JOINT LeftHandRing2
									{
										OFFSET 3.162567 0.000000 0.000000
										CHANNELS 3 Xrotation Yrotation Zrotation
										JOINT LeftHandRing3
										{
											OFFSET 3.324348 0.000000 0.000000
											CHANNELS 3 Xrotation Yrotation Zrotation
											End Site
											{
												OFFSET -0.861900 3.184998 0.405154
											}
										}
									}
								}
								JOINT LeftHandPinky1
								{
									OFFSET 13.131393 -0.168503 -5.746925
									CHANNELS 3 Xrotation Yrotation Zrotation
									JOINT LeftHandPinky2
									{
										OFFSET 2.849182 0.000000 0.000000
										CHANNELS 3 Xrotation Yrotation Zrotation
										JOINT LeftHandPinky3
										{
											OFFSET 2.805038 0.000000 0.000000
											CHANNELS 3 Xrotation Yrotation Zrotation
											End Site
											{
												OFFSET -0.882500 2.642609 0.325652
											}
										}
									}
								}
							}
							JOINT Left_Sleeve
							{
								OFFSET 6.592125 -0.646545 0.805568
								CHANNELS 3 Xrotation Yrotation Zrotation
								End Site
								{
									OFFSET -0.000179 20.275787 -0.000000
								}
							}
						}
					}
				}
				JOINT RightShoulder
				{
					OFFSET -5.731700 15.108002 -2.763700
					CHANNELS 3 Xrotation Yrotation Zrotation
					JOINT RightArm
					{
						OFFSET -9.825497 2.506317 -1.597400
						CHANNELS 3 Xrotation Yrotation Zrotation
						JOINT RightForeArm
						{
							OFFSET -21.966242 0.000000 0.000000
							CHANNELS 3 Xrotation Yrotation Zrotation
							JOINT RightHand
							{
								OFFSET -33.879032 0.000000 0.000000
								CHANNELS 3 Xrotation Yrotation Zrotation
								JOINT RightHandThumb1
								{
									OFFSET -6.715286 -2.359680 3.363841
									CHANNELS 3 Xrotation Yrotation Zrotation
									JOINT RightHandThumb2
									{
										OFFSET -2.507072 -1.447464 1.447461
										CHANNELS 3 Xrotation Yrotation Zrotation
										JOINT RightHandThumb3
										{
											OFFSET -2.898338 -1.673355 1.673357
											CHANNELS 3 Xrotation Yrotation Zrotation
											End Site
											{
												OFFSET 0.295959 3.727692 -0.131651
											}
										}
									}
								}
								JOINT RightHandIndex1
								{
									OFFSET -14.190811 -0.254547 3.840278
									CHANNELS 3 Xrotation Yrotation Zrotation
									JOINT RightHandIndex2
									{
										OFFSET -3.551727 0.000000 -0.000000
										CHANNELS 3 Xrotation Yrotation Zrotation
										JOINT RightHandIndex3
										{
											OFFSET -2.894196 0.000000 0.000000
											CHANNELS 3 Xrotation Yrotation Zrotation
											End Site
											{
												OFFSET 1.000603 2.690872 0.366626
											}
										}
									}
								}
								JOINT RightHandMiddle1
								{
									OFFSET -13.776489 0.000000 0.000000
									CHANNELS 3 Xrotation Yrotation Zrotation
									JOINT RightHandMiddle2
									{
										OFFSET -3.438232 0.000000 0.000000
										CHANNELS 3 Xrotation Yrotation Zrotation
										JOINT RightHandMiddle3
										{
											OFFSET -3.691551 0.000000 0.000000
											CHANNELS 3 Xrotation Yrotation Zrotation
											End Site
											{
												OFFSET 1.082298 3.499527 0.457670
											}
										}
									}
								}
								JOINT RightHandRing1
								{
									OFFSET -13.966164 -0.268127 -3.067488
									CHANNELS 3 Xrotation Yrotation Zrotation
									JOINT RightHandRing2
									{
										OFFSET -3.162567 0.000000 0.000000
										CHANNELS 3 Xrotation Yrotation Zrotation
										JOINT RightHandRing3
										{
											OFFSET -3.324348 0.000000 0.000000
											CHANNELS 3 Xrotation Yrotation Zrotation
											End Site
											{
												OFFSET 0.861900 3.184998 0.405154
											}
										}
									}
								}
								JOINT RightHandPinky1
								{
									OFFSET -13.131393 -0.168503 -5.746925
									CHANNELS 3 Xrotation Yrotation Zrotation
									JOINT RightHandPinky2
									{
										OFFSET -2.849182 0.000000 0.000000
										CHANNELS 3 Xrotation Yrotation Zrotation
										JOINT RightHandPinky3
										{
											OFFSET -2.805038 0.000000 0.000000
											CHANNELS 3 Xrotation Yrotation Zrotation
											End Site
											{
												OFFSET 0.882500 2.642609 0.325652
											}
										}
									}
								}
							}
							JOINT Right_Sleeve
							{
								OFFSET -6.592125 -0.646545 0.805568
								CHANNELS 3 Xrotation Yrotation Zrotation
								End Site
								{
									OFFSET 0.000179 20.275787 -0.000000
								}
							}
						}
					}
				}
				JOINT Bind_Right_JacketString
				{
					OFFSET -3.534800 11.969597 7.200700
					CHANNELS 3 Xrotation Yrotation Zrotation
					JOINT Bind_Right_JacketString1
					{
						OFFSET -0.319900 -6.102600 2.794100
						CHANNELS 3 Xrotation Yrotation Zrotation
						End Site
						{
							OFFSET 0.000000 6.719452 0.000000
						}
					}
				}
				JOINT Bind_Left_JacketString
				{
					OFFSET 2.904800 11.969597 7.200700
					CHANNELS 3 Xrotation Yrotation Zrotation
					JOINT Bind_Left_JacketString1
					{
						OFFSET 0.364800 -5.904503 3.186800
						CHANNELS 3 Xrotation Yrotation Zrotation
						End Site
						{
							OFFSET 0.000000 6.719513 0.000000
						}
					}
				}
				JOINT HairE
				{
					OFFSET 5.915200 17.612701 -11.592200
					CHANNELS 3 Xrotation Yrotation Zrotation
					JOINT HairE1
					{
						OFFSET 0.289200 -7.171898 -1.284500
						CHANNELS 3 Xrotation Yrotation Zrotation
						End Site
						{
							OFFSET 0.000000 7.291756 0.000000
						}
					}
				}
				JOINT HairF
				{
					OFFSET -0.864800 17.612701 -11.592200
					CHANNELS 3 Xrotation Yrotation Zrotation
					JOINT HairF1
					{
						OFFSET 0.000000 -14.087097 -2.127501
						CHANNELS 3 Xrotation Yrotation Zrotation
						End Site
						{
							OFFSET 0.000000 14.246841 0.000000
						}
					}
				}
				JOINT HairG
				{
					OFFSET -8.087700 17.612701 -11.592200
					CHANNELS 3 Xrotation Yrotation Zrotation
					JOINT HairG1
					{
						OFFSET -0.293600 -6.081398 -0.910100
						CHANNELS 3 Xrotation Yrotation Zrotation
						End Site
						{
							OFFSET 0.000000 6.156120 0.000000
						}
					}
				}
			}
		}
	}
	JOINT Pouch
	{
		OFFSET 0.000000 4.394501 10.847300
		CHANNELS 3 Xrotation Yrotation Zrotation
		End Site
		{
			OFFSET 0.000000 21.880577 0.000000
		}
	}
	JOINT Bag
	{
		OFFSET -13.229000 4.813004 -0.593300
		CHANNELS 3 Xrotation Yrotation Zrotation
		End Site
		{
			OFFSET 0.000000 21.880577 0.000000
		}
	}
	JOINT OccupyGuyFacialAnim_Joint
	{
		OFFSET 1.000000 -70.206398 -1.655000
		CHANNELS 3 Xrotation Yrotation Zrotation
		End Site
		{
			OFFSET 0.000000 21.880577 0.000000
		}
	}
}
MOTION
Frames: 4
Frame Time: 0.033333
-0.031357 61.863640 -0.160168 15.389284 -30.512846 2.433320 -0.000001 -0.000000 -0.000000 -56.976728 -0.137617 2.771063 60.064281 0.202627 -0.321913 -16.481207 -0.521810 2.871479 -0.000000 -0.000002 -0.000000 0.000003 0.000002 -0.000001 -46.423512 -10.731139 -10.859412 88.915355 3.175535 4.181117 7.186618 -0.020581 5.236536 0.000002 0.000001 0.000001 -0.000000 -0.000002 -0.000004 37.203156 8.301551 -9.345393 -2.844113 2.639144 -0.272604 -2.863893 2.636246 -0.553578 -19.549651 6.426490 -5.231387 -25.419109 4.099822 2.958553 0.000000 -0.000000 0.000000 0.000000 -0.000000 0.000000 0.000000 -0.000000 0.000000 0.000000 -0.000000 0.000000 0.000000 -0.000000 0.000000 0.000000 -0.000000 0.000000 0.000000 -0.000000 0.000000 0.000000 -0.000000 0.000000 0.000000 -0.000000 0.000000 6.682664 -22.982898 10.174937 -47.858309 -23.392729 -70.563313 -1.840525 -51.997964 -3.158687 -33.635328 -7.465044 17.647489 12.139847 32.224515 -20.715443 2.999695 -1.503530 25.979762 0.000001 0.000007 -0.000000 0.016547 0.020193 -62.650764 3.415986 -3.814626 -88.825005 0.000001 -0.000002 -0.000004 -2.052890 -5.912555 -81.840044 4.295415 -12.055736 -64.886367 -0.000001 0.000004 -0.000004 -1.482937 7.215256 -83.223212 4.788274 -0.845147 -61.350842 -0.000001 0.000002 -0.000001 0.021878 0.025194 -84.507998 -6.258429 -4.565133 -63.030714 -0.000000 -0.000001 -0.000001 -0.000000 -0.000005 -0.000002 5.940081 31.537849 -26.325946 -48.037666 22.525957 71.584016 -5.238302 52.343110 -12.093266 -31.849107 2.618043 -2.077573 -6.666428 -8.246971 4.694897 31.152469 -25.871657 -9.425321 0.000003 -0.000001 -0.000001 -4.887988 -9.034007 55.242587 0.234197 0.161452 104.710324 -0.000001 0.000001 0.000002 2.578535 -5.315585 71.485518 -14.334689 4.170156 107.253716 0.000001 -0.000001 -0.000001 -9.235598 -17.082786 80.313742 0.035098 0.431003 82.174361 0.000002 -0.000003 0.000000 -10.019154 -21.702579 80.947038 2.841575 1.202443 79.398702 0.000003 0.000004 0.000001 0.000001 0.000001 -0.000002 -0.000002 0.000001 -0.000001 -0.000002 -0.000000 -0.000001 -0.000002 0.000001 -0.000001 -0.000002 0.000001 -0.000001 -0.000002 0.000001 -0.000001 -0.000002 -0.000000 -0.000001 -0.000002 0.000001 -0.000001 -0.000002 0.000001 -0.000001 -0.000002 0.000001 -0.000001 -0.000002 -0.000000 -0.000001 -0.000001 -0.000000 -0.000000 -0.000001 -0.000000 -0.000000 -0.000001 -0.000000 -0.000000 
-6.417528 61.173630 -0.140867 17.269206 -27.252854 2.922152 -0.000000 0.000000 -0.000000 -59.000970 1.113681 8.896192 64.377477 -7.648775 0.851605 -20.652545 0.243489 1.224527 0.000000 -0.000000 -0.000000 -0.000001 -0.000000 -0.000002 -54.010619 -7.390603 -19.000032 91.108044 -4.760428 2.791767 0.532696 -0.088562 0.470463 0.000001 0.000001 -0.000001 -0.000002 0.000000 -0.000002 35.976754 6.245439 -7.052143 -3.249855 1.982501 -0.312629 -3.262687 1.978886 -0.524629 -19.539407 6.822516 -4.825422 -26.256721 5.072335 3.193322 0.000000 0.000000 -0.000000 0.000000 0.000000 -0.000000 0.000000 0.000000 0.000000 0.000000 0.000000 0.000000 0.000000 0.000000 -0.000000 0.000000 0.000000 0.000000 0.000000 0.000000 -0.000000 0.000000 0.000000 -0.000000 0.000000 0.000000 -0.000000 7.339686 -30.226995 14.107051 -45.259104 -21.514565 -70.445273 -2.601652 -59.631527 0.571066 -34.014991 1.272928 26.750347 12.139842 32.224518 -20.715441 2.999700 -1.503530 25.979758 0.000001 0.000002 0.000001 0.016546 0.020192 -62.650764 3.415985 -3.814627 -88.825005 0.000000 0.000003 0.000000 -2.052892 -5.912557 -81.840037 4.295412 -12.055737 -64.886374 0.000000 -0.000002 0.000002 -1.482935 7.215254 -83.223212 4.788270 -0.845150 -61.350842 -0.000000 0.000003 -0.000000 0.021876 0.025190 -84.507998 -6.258434 -4.565133 -63.030714 -0.000000 0.000000 -0.000001 0.000000 0.000001 -0.000002 3.104579 24.754019 -19.954254 -49.683441 24.570096 67.668795 -4.568321 53.622736 -7.694553 -36.212813 -0.902912 3.295077 -6.666430 -8.246970 4.694900 31.152472 -25.871657 -9.425320 -0.000002 -0.000003 0.000000 -4.887991 -9.034008 55.242590 0.234197 0.161452 104.710331 0.000000 0.000002 0.000001 2.578533 -5.315583 71.485525 -14.334682 4.170160 107.253709 0.000001 -0.000002 -0.000001 -9.235599 -17.082786 80.313749 0.035098 0.431002 82.174361 0.000000 0.000000 -0.000000 -10.019156 -21.702578 80.947044 2.841580 1.202443 79.398702 -0.000000 0.000004 -0.000002 0.000001 0.000000 0.000001 0.000001 -0.000001 0.000001 0.000001 -0.000000 -0.000000 0.000001 -0.000001 0.000001 0.000001 -0.000001 0.000001 0.000001 -0.000001 0.000001 0.000001 -0.000000 -0.000000 0.000001 -0.000001 0.000001 0.000001 -0.000001 0.000001 0.000001 -0.000001 0.000001 0.000001 -0.000000 -0.000000 -0.000000 0.000000 -0.000000 -0.000000 0.000000 -0.000000 -0.000000 0.000000 -0.000000 
-13.049356 61.658478 -0.116999 17.808094 -27.703333 3.387355 0.000000 0.000000 -0.000001 -56.765627 3.168719 17.309856 63.257346 -15.221451 2.041354 -22.242566 1.570502 -2.107731 0.000000 0.000001 -0.000000 0.000002 0.000000 -0.000001 -55.959976 -3.899463 -23.915834 82.079749 -13.416212 1.224587 -1.411570 0.131703 -2.224380 0.000001 0.000001 -0.000001 -0.000003 0.000000 -0.000000 34.834057 4.228223 -5.037703 -3.588744 1.360930 -0.340072 -3.594105 1.356563 -0.485927 -18.358901 6.693816 -5.080956 -26.545530 4.758222 2.220944 -0.000000 -0.000001 -0.000000 -0.000000 -0.000001 -0.000000 -0.000000 -0.000001 -0.000000 -0.000000 -0.000001 -0.000000 -0.000000 -0.000000 -0.000000 -0.000000 -0.000001 -0.000000 -0.000000 -0.000000 -0.000000 -0.000000 -0.000001 -0.000000 -0.000000 -0.000001 -0.000000 7.428682 -31.116283 16.659719 -41.947672 -18.896801 -73.492870 -3.274582 -65.776252 3.571683 -34.271202 6.557382 32.776620 12.139841 32.224522 -20.715438 2.999699 -1.503530 25.979751 0.000001 0.000004 0.000001 0.016547 0.020193 -62.650757 3.415987 -3.814626 -88.825005 -0.000000 0.000002 0.000000 -2.052892 -5.912555 -81.840037 4.295415 -12.055736 -64.886374 0.000001 0.000003 -0.000001 -1.482939 7.215259 -83.223212 4.788279 -0.845147 -61.350842 -0.000001 0.000001 0.000000 0.021873 0.025197 -84.507998 -6.258430 -4.565133 -63.030714 -0.000000 -0.000003 -0.000001 0.000001 -0.000001 -0.000003 4.947561 27.195109 -22.630150 -48.880088 24.202618 66.578041 -4.912829 54.044336 -8.550253 -39.596533 -3.582320 7.055994 -6.666427 -8.246973 4.694905 31.152472 -25.871655 -9.425322 -0.000000 0.000001 -0.000000 -4.887990 -9.034009 55.242597 0.234195 0.161452 104.710318 0.000000 0.000000 0.000000 2.578535 -5.315582 71.485525 -14.334690 4.170158 107.253716 0.000000 -0.000001 0.000002 -9.235599 -17.082785 80.313749 0.035100 0.431004 82.174361 -0.000002 0.000000 -0.000002 -10.019152 -21.702574 80.947044 2.841576 1.202440 79.398702 -0.000001 0.000001 -0.000001 0.000003 0.000001 0.000000 -0.000002 -0.000000 -0.000001 -0.000000 0.000001 -0.000002 -0.000002 -0.000000 -0.000001 -0.000002 -0.000000 -0.000001 -0.000002 -0.000000 -0.000001 -0.000000 0.000001 -0.000001 -0.000002 -0.000000 -0.000001 -0.000002 -0.000000 -0.000001 -0.000002 -0.000000 -0.000001 -0.000000 0.000001 -0.000001 0.000000 0.000000 -0.000001 0.000000 0.000000 -0.000001 0.000000 0.000000 -0.000001 
-20.232937 62.957573 -0.094669 17.416429 -31.230603 3.807401 -0.000000 0.000000 0.000000 -51.891888 7.565901 27.264182 57.821328 -20.278103 3.271679 -20.175819 3.233204 -7.667667 0.000000 -0.000001 -0.000000 0.000003 0.000000 -0.000000 -53.717460 -0.605982 -23.375976 65.309408 -13.110528 -0.725562 2.945937 0.227873 -5.646383 -0.000000 -0.000001 0.000002 0.000001 0.000003 0.000002 33.564731 2.652961 -3.868592 -3.671061 0.909992 -0.334203 -3.670778 0.904617 -0.429036 -17.426063 7.160355 -5.867594 -25.298910 5.749308 1.662359 0.000000 0.000000 0.000000 0.000000 0.000000 0.000000 0.000000 0.000000 0.000000 0.000000 0.000000 0.000000 -0.000000 0.000000 0.000000 0.000000 0.000000 0.000000 -0.000000 0.000000 0.000000 0.000000 0.000000 0.000000 0.000000 0.000000 0.000000 6.869901 -30.643961 15.202087 -35.276278 -14.672006 -74.036238 -3.863876 -72.325338 3.607360 -34.286932 9.188563 37.672622 12.139842 32.224518 -20.715450 2.999703 -1.503528 25.979757 -0.000001 -0.000000 0.000000 0.016544 0.020200 -62.650764 3.415986 -3.814626 -88.825005 0.000001 0.000001 -0.000000 -2.052890 -5.912552 -81.840044 4.295413 -12.055736 -64.886374 -0.000002 0.000004 0.000003 -1.482937 7.215258 -83.223219 4.788276 -0.845149 -61.350842 -0.000002 0.000003 -0.000001 0.021874 0.025197 -84.508004 -6.258430 -4.565133 -63.030714 -0.000001 0.000001 -0.000000 0.000000 -0.000000 -0.000001 9.329524 34.889655 -27.406706 -46.232546 22.434678 65.513945 -5.222311 54.107181 -9.952082 -41.157029 -4.974020 9.353469 -6.666428 -8.246969 4.694905 31.152476 -25.871657 -9.425319 -0.000002 -0.000002 0.000002 -4.887989 -9.034005 55.242587 0.234192 0.161455 104.710324 0.000001 0.000003 0.000002 2.578533 -5.315581 71.485518 -14.334680 4.170158 107.253716 -0.000000 -0.000000 0.000001 -9.235602 -17.082783 80.313742 0.035103 0.431005 82.174361 -0.000003 -0.000003 -0.000001 -10.019156 -21.702579 80.947044 2.841571 1.202444 79.398702 -0.000001 0.000006 -0.000000 -0.000000 -0.000001 0.000002 -0.000002 -0.000001 0.000001 -0.000002 -0.000001 0.000000 -0.000002 -0.000001 0.000000 -0.000002 -0.000001 0.000000 -0.000002 -0.000001 0.000001 -0.000002 -0.000001 0.000000 -0.000002 -0.000001 0.000000 -0.000002 -0.000001 0.000000 -0.000002 -0.000001 0.000001 -0.000002 -0.000001 0.000000 -0.000000 0.000000 0.000000 -0.000000 0.000000 0.000000 -0.000000 0.000000 0.000000 
